<?xml version="1.0" encoding="UTF-8"?><svg id="Layer_2" xmlns="http://www.w3.org/2000/svg" xmlns:xlink="http://www.w3.org/1999/xlink" viewBox="0 0 310.57 278.12"><defs><style>.cls-1{fill:#f7941d;}.cls-1,.cls-2,.cls-3,.cls-4,.cls-5,.cls-6,.cls-7,.cls-8,.cls-9,.cls-10,.cls-11,.cls-12,.cls-13,.cls-14,.cls-15{stroke-width:0px;}.cls-16{clip-path:url(#clippath);}.cls-2{fill:#ffecd2;}.cls-3{fill:none;}.cls-4{fill:#f9cf93;}.cls-17{clip-path:url(#clippath-1);}.cls-18{clip-path:url(#clippath-2);}.cls-5{fill:#1d2126;}.cls-6{fill:#a7a9ac;}.cls-7{fill:#efb160;}.cls-8{fill:#ff914d;}.cls-9{fill:#754c29;}.cls-10{fill:#e6e7e8;}.cls-11{fill:#dd626b;}.cls-12{fill:#d1d3d4;}.cls-13{fill:#fff;}.cls-14{fill:#b28364;}.cls-15{fill:#231f20;}</style><clipPath id="clippath"><rect class="cls-3" x="32.27" y="46.12" width="232.73" height="232"/></clipPath><clipPath id="clippath-1"><rect class="cls-3" x="117.6" y="196.94" width="85.33" height="81.19"/></clipPath><clipPath id="clippath-2"><rect class="cls-3" y="50.27" width="241.6" height="225.33"/></clipPath></defs><g id="Layer_1-2"><g class="cls-16"><path class="cls-1" d="M264.83,162.14c0,2.59-.08,5.17-.26,7.75s-.43,5.15-.77,7.71-.78,5.11-1.29,7.65c-.52,2.53-1.11,5.05-1.8,7.54-.68,2.49-1.45,4.96-2.29,7.41-.85,2.44-1.78,4.85-2.79,7.23-1.01,2.38-2.09,4.72-3.26,7.03-1.16,2.31-2.41,4.58-3.72,6.8-1.31,2.22-2.7,4.4-4.17,6.53s-2.99,4.21-4.59,6.24c-1.6,2.03-3.27,4.01-5.01,5.92s-3.53,3.78-5.39,5.57-3.77,3.53-5.74,5.2c-1.97,1.67-4.01,3.27-6.08,4.8-2.08,1.54-4.21,3-6.39,4.39-2.18,1.39-4.4,2.7-6.67,3.95-1.17.65-2.35,1.28-3.55,1.88-.14.07-.28.15-.42.21-8.03,4.02-16.41,7.05-25.15,9.11-8.73,2.06-17.59,3.08-26.57,3.07-3.18,0-6.33-.13-9.45-.39-5.85-.47-11.65-1.38-17.36-2.74l-.37-.08c-.99-.23-1.98-.48-2.96-.76l-.37-.09c-7.05-1.92-13.86-4.49-20.42-7.71l-.51-.24c-1.39-.69-2.74-1.4-4.1-2.14-3.04-1.67-6.01-3.46-8.89-5.39-2.88-1.93-5.67-3.98-8.37-6.17-2.7-2.18-5.29-4.47-7.78-6.89-2.49-2.41-4.88-4.93-7.14-7.56-2.27-2.63-4.41-5.35-6.43-8.17-2.02-2.82-3.91-5.72-5.67-8.71-1.77-2.99-3.39-6.05-4.88-9.18-1.49-3.14-2.83-6.33-4.04-9.58s-2.26-6.56-3.16-9.91-1.66-6.73-2.26-10.15-1.05-6.85-1.34-10.31c-.3-3.45-.44-6.92-.42-10.39.02-3.47.19-6.93.52-10.38.33-3.46.81-6.89,1.44-10.3.64-3.41,1.42-6.79,2.35-10.13.94-3.34,2.02-6.63,3.26-9.88.38-1.03.79-2.05,1.21-3.06.04-.11.08-.23.14-.34.88-2.1,1.82-4.17,2.8-6.2l.17-.34c.45-.92.91-1.82,1.38-2.7.07-.12.12-.23.18-.34,4.31-8.13,9.52-15.65,15.61-22.54,6.09-6.9,12.91-12.99,20.45-18.27l.17-.13c.05-.04.1-.07.15-.1,1-.69,2.02-1.38,3.04-2.04,4.67-3.04,9.53-5.72,14.58-8.05,5.05-2.33,10.25-4.29,15.58-5.86,5.34-1.58,10.76-2.77,16.27-3.56,5.51-.79,11.04-1.19,16.61-1.18,64.03,0,115.9,51.9,115.9,115.96Z"/></g><path class="cls-13" d="M131.7,197.57l-.73.03-6.2.25c-.57.02-.97.3-1.19.82-.15.34-14.25,33.81-4.77,75.51l-.37-.09c-7.05-1.92-13.86-4.49-20.42-7.71l-.51-.24c-1.52-2.97-2.05-6.11-1.62-9.42,1.53-11.38,2.24-22.82,2.13-34.3-.34-24.38-17.83-47.41-21.32-51.76-.08-.09-.16-.18-.21-.27l.3-.17c3.78-2.1,8.33-5.27,12.54-8.21,3.11-2.16,6.04-4.21,7.95-5.3.65-.39,1.27-.76,1.81-1.15.09-.06.18-.13.28-.19l.18.3,11.79,18.96.44.71c.08.13.19.24.31.34.06.18.14.35.21.54,1.59,4.05,3.73,7.78,6.43,11.2,3.35,4.22,7.45,7.5,12.3,9.84l.69.32Z"/><path class="cls-9" d="M190.97,159.88l2.13-8.43c.11-.43.37-.73.78-.91-1.41-.14-2.8-.35-4.18-.65l.74,8.9c0,.09,0,.19,0,.28.21.24.39.52.54.8Z"/><path class="cls-13" d="M95.93,154.31c3.14-1.81,5.02-3.74,5.02-5.2,0-.64-.41-1.24-1.22-1.82-1.71,2.03-3.82,3.43-6.35,4.22-.35.1-.68.07-1.01-.09-.32-.17-.54-.42-.66-.77s-.1-.68.05-1.02c.15-.33.4-.56.73-.7,4.39-1.51,6.35-4.39,6.07-5.88-.15-.78-1.08-.91-1.84-.89-2.73.09-14.83,7.73-30.12,18.99-.34.24-.59.56-.75.96-.16.39-.19.79-.11,1.21.11.46.3.54.4.54.54.2,3.02.35,10.98-5.87.15-.11.3-.19.48-.24.17-.05.35-.06.53-.04.18.03.35.08.51.17.16.09.29.2.41.35.11.14.19.3.23.48.05.17.06.35.04.53-.03.18-.08.35-.17.51s-.21.29-.35.4c-4.13,3.24-7.03,4.93-9.08,5.78-.54,1.35-.84,3.18-.4,3.73.18.24.73.31,1.48.18,3.28-.54,10.88-5.83,16.97-10.09,3.29-2.33,6.14-4.31,8.15-5.46Z"/><path class="cls-4" d="M187.56,157.28l-.64-7.72-.03-.36-.34-.11c-.34-.1-.67-.2-.99-.32-.18-.05-.34-.12-.51-.18-.36-.13-.71-.27-1.08-.4-.21-.08-.42-.17-.63-.26-.21-.08-.57-.23-.84-.36l-.74-.35c-.22-.1-.45-.21-.67-.32l-.45-.24c-.31-.16-.61-.33-.92-.49l-.4-.23c-.38-.22-.77-.45-1.12-.68-.36-.23-.72-.47-1.05-.7-.34-.22-.71-.5-1.08-.76-2.18-1.61-4.11-3.49-5.8-5.61l-.23-.3-.36.09c-4.49,1.04-8.68.8-12.49-.76-6.71-2.7-10.38-8.65-11.84-11.63-3.82,3.05-14.81,11.07-27.18,13.04-1.79.29-3.59.43-5.4.44h-1.3c-.21,0-.41,0-.61-.04h-.32c0,.11,0,.23-.03.34,0,.2-.03.41-.04.61-.17,2.53-.29,5.51-.25,8.74,0,.67,0,1.35.04,2.04,0,.44.04.89.06,1.34,0,.36.04.72.05,1.08.02.36.05.86.08,1.3l.1,1.33c.05.58.1,1.16.17,1.74v.14c.13,1.15.27,2.29.44,3.46.05.33.09.67.15.99.06.33.13.79.21,1.19.1.6.21,1.2.34,1.81.1.54.22,1.06.34,1.58.11.52.23,1,.36,1.5.21.84.44,1.66.69,2.49.13.41.26.82.39,1.22.08.28.18.57.29.84.1.28.14.42.21.64.02.07.04.14.07.2.07.21.15.42.22.64.05.11.09.23.14.35.42,1.08.87,2.16,1.37,3.2.16.34.33.68.49,1.02.17.33.27.54.41.79.11.23.23.45.35.66.82,1.51,1.74,2.95,2.76,4.33l.41.54.43.54c.23.29.46.57.7.85l.37.42c.19.22.38.44.59.66.2.21.36.38.54.57.05.07.11.13.18.18.24.24.47.48.72.71.15.15.3.29.45.42s.18.16.28.24c.02.03.04.05.07.07.2.17.39.34.58.5l.04.03c.31.27.63.54.95.77l.41.32c.24.18.46.35.71.54.25.19.42.3.64.44.45.32.92.61,1.4.9l.54.3c.06.04.12.07.18.1.21.13.41.23.62.34l.58.31s.04.03.07.05c.21.11.42.22.65.32l.33.16c.3.15.6.29.91.42.15.06.3.13.45.19.17.08.33.15.5.21.25.1.5.2.76.3l.09.04c.24.09.49.18.74.27h.03c.17.06.33.12.51.17.17.05.5.17.76.24l.54.16s.06.03.1.03c.35.1.69.21,1.05.3h.06c.29-.02.55.06.8.22l.62.14c.44.1.89.19,1.34.28l.54.09c.35.07.71.13,1.08.18.08.02.16.03.24.04.31.04.63.09.95.13.54.07,1.11.14,1.68.19.29.03.58.06.87.08h.18c.28,0,.54.04.81.05s.63.04.95.05c2.06.11,4.13.11,6.19,0l.9-.06c1.19-.1,2.36-.24,3.51-.42.29-.04.57-.09.85-.15l.85-.16.7-.14.64-.14.58-.14.59-.15.81-.22.81-.23.54-.16-.54-.2c-.17-.06-.34-.12-.51-.19l-.48-.19c-.79-.32-1.56-.68-2.31-1.08-.08-.04-.17-.09-.24-.14-.39-.21-.65-.38-.77-.45-.21-.11-.41-.22-.6-.35l-.06-.04c-.16-.11-.32-.22-.47-.34l-.17-.14-.04-.04c-.15-.11-.28-.23-.41-.36l-.07-.06c-.17-.15-.32-.32-.47-.49-.77-.9-1.35-1.91-1.74-3.03s-.58-2.27-.55-3.46c.03-3.6,1.74-6.79,4.36-8.11.23-.11.47-.2.71-.26l-.05-.1c-.34-.79-.58-2.09.3-3.79,1.24-2.4,3.67-4.06,6.84-4.68,1.97-.37,3.94-.34,5.91.08l.36.08c-.03-.13-.07-.26-.11-.39-1.03-3.66-2.07-9.55.54-12.88.55-.78,1.29-1.22,2.23-1.34.47-.04.92.03,1.35.22l.23.11.13.07.26.16c.11.07.21.15.3.23.11.08.21.16.31.26.2.19.39.4.57.63.74.96,1.34,2.02,1.79,3.15.07.16.14.33.2.51.07.18.19.49.28.74.06.16.11.32.17.49.07-.18.15-.36.21-.54.07-.16.16-.33.24-.49.08-.16.16-.3.25-.45.08-.14.17-.27.26-.4.14-.2.29-.4.46-.58.07-.07.15-.15.22-.21.23-.22.48-.4.77-.54.08-.05.16-.08.24-.12l.27-.11c.13-.04.27-.08.41-.1.1-.03.21-.05.32-.05h.03c.14-.01.28-.01.41,0h.34l-.05-.44ZM141.04,169.75l12.87.2c.33,0,.62.11.87.32.26.21.41.48.47.8.15.82,1.33,8.16-1.42,11.67-.42.56-.94.99-1.56,1.32s-1.27.51-1.96.55h-.54c-7.83,0-10.02-12.75-10.1-13.31-.06-.42.04-.79.32-1.11.29-.32.65-.46,1.07-.44h-.02Z"/><path class="cls-9" d="M110.83,136.25c13.51.97,27.28-8.48,32.25-12.32-10.35.13-20.27,2.26-29.76,6.39-.59.27-1.22.43-1.86.47.03.18.03.36,0,.54-.02.09-.34,1.92-.63,4.92Z"/><path class="cls-15" d="M149.83,181.92h.29c.66-.03,1.18-.31,1.57-.83,1.44-1.84,1.31-6.02,1.04-8.42l-9.99-.16c.78,3.05,2.91,9.41,7.09,9.41Z"/><path class="cls-4" d="M89.87,142.22l-10.81-22.43v-.08s-.04-.09-.05-.14c-.01-.04-.02-.08-.03-.12v-.57c.04-1.08-.15-3.51-1.38-4.69-.66-.63-1.56-.85-2.78-.71-1.21.15-2.03.54-2.49,1.28-.81,1.23-.46,3.24-.27,3.88v.05c.02.05.03.1.03.15,0,.04,0,.08,0,.12v.26s0,.11-.03.17c-.03.06,0,.05-.03.08-.02.06-.04.11-.07.17l-.03.06c-.03.06-.07.11-.11.17l-.04.05s-.08.09-.13.14l-.06.05c-.05.04-.1.07-.16.1l-.07.04c-.06.03-.12.06-.18.08h-.07c-.06.02-.13.03-.19.04h-.17l-19.13.16,11.94,11.59c.11.1.2.23.27.36l10.01,20.14c5.48-3.85,11.43-7.83,16.03-10.38Z"/><path class="cls-12" d="M91.98,85.93c-.4-4.45.36-8.69,2.29-12.71-3.95-3.04-8.28-5.35-13.01-6.95-4.72-1.59-9.57-2.39-14.55-2.36-1.46,0-2.92.08-4.38.22-1.46.15-2.9.36-4.34.64-1.44.29-2.85.64-4.26,1.06s-2.78.91-4.14,1.46c-1.35.56-2.68,1.17-3.98,1.85-1.29.68-2.55,1.42-3.78,2.22-1.22.81-2.41,1.67-3.55,2.58s-2.23,1.89-3.28,2.91c-1.05,1.02-2.05,2.09-2.99,3.21-.94,1.12-1.83,2.28-2.66,3.49-.83,1.2-1.6,2.45-2.32,3.72-.71,1.28-1.36,2.59-1.95,3.93-.58,1.34-1.1,2.71-1.56,4.1-.45,1.39-.84,2.8-1.16,4.23-.32,1.43-.57,2.87-.74,4.32-.18,1.46-.29,2.92-.32,4.38h82.56c-3.86-3.77-10.97-12.01-11.91-22.31Z"/><path class="cls-12" d="M75.24,61.97c-.04-.54-.13-1.06-.26-1.58-.14-.52-.32-1.02-.55-1.49-.23-.48-.51-.94-.82-1.37-.32-.43-.67-.83-1.06-1.19-.39-.36-.81-.69-1.27-.97-.45-.29-.93-.53-1.42-.72-.5-.2-1.01-.34-1.54-.44s-1.05-.15-1.59-.15-1.06.05-1.59.15-1.04.24-1.53.44c-.5.2-.97.44-1.43.72-.45.28-.88.61-1.27.97-.39.36-.74.76-1.06,1.19-.32.43-.59.89-.82,1.37-.23.48-.41.98-.55,1.49-.14.52-.22,1.04-.26,1.58,5.67-1.03,11.34-1.03,17.01,0Z"/><path class="cls-12" d="M79.44,112.21c1.63,1.53,2.06,3.87,2.16,5.44h22.4c-.26-2.38.19-4.6,1.36-6.69h-28.1c.83.24,1.55.66,2.18,1.25Z"/><path class="cls-12" d="M70,113.26c.81-1.22,1.94-1.99,3.38-2.31H3.11v6.88h45.16l20.83-.17c-.2-1.57.1-3.03.9-4.4Z"/><path class="cls-4" d="M202.85,150.01c-2.4-.35-4.89.66-6.85,2.77-.15.16-.33.28-.54.35l-4.21,16.68c-.05.18-.14.35-.25.49-.69,3.1-1.56,6.15-2.62,9.14,1.91-2.83,3.57-5.8,4.97-8.91.08-.17.2-.32.34-.45l.03-.03c.13-.13.27-.23.44-.3s.34-.1.52-.1.35.04.52.1.32.17.44.3c1.09,1.14,2.42,1.82,3.98,2.07,2.2.32,4.46-.48,6.34-2.26,1.03-1.02,1.86-2.17,2.51-3.47.64-1.3,1.05-2.66,1.23-4.1.89-6.07-2.2-11.58-6.87-12.27Z"/><g class="cls-17"><path class="cls-13" d="M201.07,265.74c-.14.07-.28.15-.42.21-8.03,4.02-16.41,7.05-25.15,9.11-8.73,2.06-17.59,3.08-26.57,3.07-3.18,0-6.33-.13-9.45-.39-5.85-.47-11.65-1.38-17.36-2.74l-.37-.08c-9.06-37.91,1.94-69.13,3.99-74.4l11.75-.48,1.21-.05.96.23c3.07.69,6.18,1.1,9.32,1.21.84.04,1.68.05,2.51.05,6.54.08,12.84-1.1,18.91-3.55l.74-.31h.64l.06.08.04.04.22.21,4.89,4.62.24.24c-.07.08-.15.16-.23.23-1.04,1.04-2.01,2.04-2.91,2.98l-.49.49c-.62.64-1.02,1.39-1.2,2.26s-.11,1.72.2,2.55c.18.53.47.98.9,1.35.42.37.9.6,1.45.71.21.05.43.07.65.07h.4v.34c-.03,1.25.17,2.7,1.08,3.68l.13.13c.61.55,1.33.82,2.16.8.56-.01,1.09-.1,1.62-.28.93-.35,1.79-.81,2.59-1.39l.34-.23c-.01.14,0,.28.03.41.03.15.09.28.17.4.34.54,5.72,9.13,12.72,15.03.12.1.24.21.38.31l.09.51,4.32,25.19c.38,2.5.19,4.96-.57,7.37Z"/></g><path class="cls-10" d="M186.73,186.08l4.24,3.79c2.7-2.3,5.05-4.01,6.58-4.62-2.46-1.24-4.98-2.35-7.56-3.33-1.02,1.44-2.1,2.83-3.26,4.16Z"/><path class="cls-13" d="M205.74,192.93c.24,1.71-.54,3.62-2.32,5.58,2.31,1.27,11.03,6.49,14.43,14.95.07.17.1.34.1.52s-.04.35-.11.52c-.07.17-.17.31-.3.44-.13.13-.28.22-.44.29-.16.07-.33.1-.51.1-.28,0-.53-.08-.76-.23-.23-.16-.4-.36-.5-.62-3.47-8.59-13.59-13.78-13.69-13.83-.1-.05-.18-.11-.27-.18l-.17.14c-1.48,1.21-3.71,3.41-6.09,5.74-3.19,3.14-6.66,6.54-9.6,8.91.38.08.67.28.88.61.11.19,11.83,18.88,22.16,19.26,4.09.16,7.52-1.33,9.89-4.27,3.98-4.94,4.71-13.4,2.05-23.82-2.05-8.04-10.16-14.49-17.51-18.84.05.41.05.82,0,1.22,1.99,1.04,2.6,2.47,2.75,3.52Z"/><path class="cls-9" d="M197.79,148.15c.64-.3,1.3-.52,1.98-.68-18.49-16.86-36.74-22.64-52.09-23.44,1.17,2.43,4.49,8.2,10.6,10.66,4.94,1.99,10.7,1.44,17.11-1.65.17-.08.34-.14.53-.15.18-.02.36,0,.54.06.18.06.33.15.47.27.14.13.25.27.33.43.08.17.13.34.14.53,0,.18-.02.36-.08.54-.07.17-.16.33-.29.46-.13.14-.28.24-.44.31-1.19.57-2.41,1.07-3.66,1.51,2.7,3.24,10.53,10.77,24.28,10.99.21,0,.41.05.59.15Z"/><path class="cls-13" d="M217.86,101.43c-1.16,4.93-4.17,10.73-10.49,17.16-.12.14-.27.24-.44.32s-.34.12-.53.13-.36-.03-.54-.09c-.18-.07-.33-.17-.46-.3-.14-.13-.23-.28-.31-.45s-.1-.35-.1-.54c0-.19.04-.36.12-.53.07-.17.18-.32.32-.45,9.6-9.76,12.64-19.69,8.56-27.95-4.96-10.06-19.73-15.97-35.12-14.06-11.48,1.45-22.96,1.52-34.46.21-3.51-.42-13.75-1.94-14.72-3.41-.31-.48-.32-.96-.04-1.46.09-.16.21-.29.35-.4.15-.11.3-.19.48-.23.17-.05.35-.06.53-.03.18.02.35.08.51.17.07.04.13.08.19.13,1.24.5,8.25,2.33,19.09,3.1-4.86-4.87-17.38-14.13-30.15-14.28-7.51-.1-14.05,2.96-19.36,9.09-1.57,1.78-2.92,3.72-4.04,5.82-.03.06-.05.12-.09.17-2.01,3.79-2.83,7.83-2.46,12.1,1.08,11.95,11.72,21.29,13.18,22.52.59-.45,1.21-.86,1.88-1.21,26.32-14.15,58.64-.95,60.01-.39.17.07.31.17.44.3s.22.28.29.44.1.34.1.52c0,.18-.04.35-.11.52-.07.17-.17.32-.3.44-.13.13-.27.22-.44.29s-.34.1-.52.1-.35-.04-.52-.1c-.32-.14-32.51-13.26-57.67.28-4.89,2.63-5.6,6.89-2.52,15.2.73,1.96,1.45,3.08,2.22,3.41.52.19,1.01.14,1.48-.14,5.67-2.44,11.55-4.21,17.63-5.29,6.08-1.08,12.21-1.45,18.38-1.11,19.99,1.16,38.66,9.9,55.48,25.98,2.1.43,3.88,1.45,5.32,3.05,3.28-2.23,4.86-4.72,4.81-7.61-.15-9.42-17.03-19.75-17.2-19.85-.31-.2-.51-.48-.59-.84-.08-.36-.03-.7.16-1.02.19-.31.46-.52.82-.61.36-.09.7-.05,1.02.14.62.38,12.99,7.95,17.15,16.81,8.22,2.13,14.02.67,17.74-4.46,4.12-5.7,5.4-11.05,3.82-15.91-3.05-9.32-15.72-14.51-18.89-15.67Z"/><path class="cls-13" d="M175.6,208.41c-.25.26-.41.56-.49.91-.07.35-.05.69.07,1.03.14.34.26.36.31.37.34.07,2.36.05,8.4-6.57.13-.13.27-.23.43-.31.17-.08.34-.12.52-.13.18-.01.35.02.53.08.17.06.32.15.45.28.13.12.23.26.31.43.08.16.12.33.13.51.01.18-.02.36-.08.53-.06.17-.15.32-.28.45-3.07,3.37-5.31,5.26-6.98,6.3-.28,1.27-.29,2.91.14,3.3.14.13.54.09,1.08-.08,2.68-.87,8.7-6.79,13.1-11.11,2.53-2.47,4.7-4.61,6.27-5.91,2.41-1.97,3.74-3.92,3.56-5.19-.13-.6-.46-1.03-1.02-1.3-1.19,1.95-2.82,3.44-4.86,4.46-.16.1-.33.16-.52.18-.18.03-.36.02-.55-.04-.18-.05-.34-.13-.49-.25-.15-.11-.26-.26-.35-.42-.09-.16-.14-.34-.16-.53s0-.37.06-.55c.06-.18.15-.33.28-.47s.27-.25.44-.33c3.47-1.85,4.77-4.68,4.32-5.92-.16-.46-.66-.61-1.48-.47-2.26.42-11.57,8.75-23.14,20.73Z"/><path class="cls-7" d="M168.47,186.82c.79,1.15,1.87,1.82,3.24,2.02.98.14,1.83-.15,2.53-.86,1.08-1.03,1.53-2.77,1.32-4.91,0-.69-.26-1.26-.76-1.73-.68-.54-1.83-.48-2.46-.39-1.54.22-3.07.24-4.61.06.26.85.29,1.71.08,2.57-.28,1.18-.06,2.27.65,3.25Z"/><path class="cls-4" d="M177.48,195.97c-.73.45-1.51.81-2.32,1.08l4.04,3.82c3.15-3.14,6.57-6.45,9.69-9.23l-4.81-4.28c-.18.28-.42.47-.74.58-.31.1-.63.09-.93-.04s-.54-.34-.69-.64c-.15-.3-.19-.6-.11-.93,1.52-6.44-1.39-10.58-4.09-12.92-1.75-1.52-5.34-2.22-8.35-1.63-1.65.32-3.85,1.15-4.93,3.24-.3.45-.38.93-.23,1.44.27.6,1.27,1.17,2.73,1.56,1.73.42,3.48.49,5.24.21,1.84-.26,3.4.07,4.51.95,1.11.94,1.71,2.14,1.77,3.59.29,2.98-.47,5.51-2.12,7.13-.63.62-1.36,1.07-2.2,1.36-.84.28-1.69.37-2.57.26-1.03-.15-1.99-.49-2.89-1.04-.89-.55-1.64-1.26-2.23-2.11-.56-.78-.93-1.65-1.12-2.59-.19-.94-.17-1.88.04-2.82.12-.38.11-.76-.01-1.13s-.35-.68-.67-.91c-.82-.64-1.98-.75-2.39-.54-1.7.86-2.85,3.17-2.88,5.73,0,1.27.28,4.38,3.21,5.95l.1.06c.06.04,3.94,2.49,8.19,2.76.35-.14.69-.14,1.04,0,1.55-.02,2.98-.43,4.3-1.23.15-.1.32-.16.5-.19.18-.04.36-.03.54.01s.34.11.49.22c.15.1.27.23.37.39.09.16.16.32.19.51.03.18.02.36-.02.54s-.12.34-.23.48c-.1.15-.24.27-.4.36l-.02-.02Z"/><path class="cls-7" d="M188.18,160.68c-.84-.54-1.19-.33-1.3-.28-1.35.73-2.1,4.99-2.16,7.66.54,4,.58,8,.13,12.01-.03.23-.11.45-.26.64.05.32.09.66.11.98,3.59-9.64,5.81-19.59,3.48-21.02Z"/><path class="cls-4" d="M179.29,171.36c1.22,1.05,2.27,2.25,3.14,3.6.07-8.11-2.04-14.93-3.91-17.05-.39-.45-.64-.54-.69-.54-.14.07-.24.17-.33.3-2.27,2.89-.37,9.92.73,12.91.38.23.74.48,1.07.78Z"/><path class="cls-6" d="M92.8,77.18c.39-1.36.88-2.69,1.47-3.97-3.7-2.83-7.74-5.05-12.13-6.64,0,0,6.61,4.14,10.66,10.6Z"/><path class="cls-6" d="M103.89,108.24c-2.82-2.76-7.38-7.91-9.99-14.52-5.65,7.84-23.73,12.52-46.26,14.52h56.25Z"/><path class="cls-13" d="M82.14,66.59c-.84-.3-1.69-.58-2.55-.83-.86-.25-1.72-.48-2.6-.68-.87-.2-1.74-.38-2.63-.53-.88-.15-1.77-.28-2.66-.37-.89-.1-1.79-.17-2.68-.21-.9-.04-1.79-.06-2.68-.05-.9,0-1.79.04-2.69.1-.89.06-1.78.15-2.67.26-.89.11-1.78.26-2.65.42-.88.17-1.76.36-2.63.58s-1.73.46-2.58.73c-.85.27-1.7.56-2.54.88-.83.32-1.66.66-2.48,1.03-.82.36-1.62.76-2.41,1.17-.8.42-1.57.85-2.34,1.31-.77.46-1.52.95-2.26,1.45-.73.51-1.46,1.03-2.17,1.58-.71.55-1.4,1.11-2.07,1.7-.68.59-1.33,1.2-1.97,1.83-.64.63-1.26,1.28-1.86,1.94-.6.67-1.18,1.35-1.74,2.05-.56.7-1.1,1.41-1.61,2.15-.52.73-1.02,1.47-1.48,2.23-.47.76-.93,1.53-1.35,2.32-.43.79-.83,1.58-1.21,2.4-.38.81-.74,1.63-1.07,2.46-.33.83-.64,1.67-.92,2.52-.29.85-.54,1.71-.78,2.57-.23.86-.44,1.73-.62,2.61-.18.88-.33,1.76-.46,2.65-.13.89-.23,1.78-.31,2.67-.07.89-.13,1.79-.15,2.68h3.15c9.79-49.81,57.67-41.64,57.67-41.64Z"/><path class="cls-13" d="M74.02,66.1c.05.3.02.6-.1.92-.13.32-.33.65-.62.98-.29.33-.66.67-1.1.99-.45.33-.96.66-1.55.98-.58.32-1.23.63-1.94.92-.7.3-1.45.57-2.25.83s-1.62.49-2.47.7c-.86.21-1.72.4-2.61.55-.88.16-1.76.28-2.64.38s-1.73.16-2.57.19-1.64.03-2.4,0c-.77-.04-1.47-.1-2.14-.2s-1.26-.23-1.79-.39c-.54-.16-.99-.34-1.38-.56s-.69-.45-.92-.71-.36-.54-.41-.83c-.05-.29-.02-.6.1-.92.12-.32.32-.65.61-.97.29-.33.66-.67,1.1-1s.96-.66,1.55-.97c.59-.32,1.23-.63,1.94-.92.7-.29,1.45-.57,2.25-.83.8-.26,1.62-.49,2.48-.7.85-.21,1.72-.4,2.6-.55.89-.16,1.76-.28,2.64-.38.88-.1,1.73-.16,2.56-.19.84-.03,1.64-.03,2.4,0,.76.03,1.47.1,2.14.2s1.26.22,1.79.39c.53.16.99.34,1.38.56.39.21.69.45.91.71.22.26.36.53.41.83Z"/><path class="cls-13" d="M51.48,78.52c0,.39-.09.77-.27,1.13-.18.36-.43.68-.77.95-.33.28-.71.49-1.14.64-.43.15-.89.22-1.35.22s-.92-.07-1.35-.22c-.43-.15-.81-.36-1.15-.64-.33-.28-.58-.59-.76-.95-.18-.36-.27-.73-.27-1.13s.09-.76.27-1.12c.18-.36.43-.68.76-.95.33-.28.71-.49,1.15-.64.43-.15.88-.22,1.35-.22s.92.07,1.35.22c.43.15.81.36,1.14.64.33.28.58.59.77.95.18.36.27.73.27,1.12Z"/><path class="cls-6" d="M70.91,55.12s2.92,5.47-8.31,6.26c-11.22.79,12.66,1.2,12.64,1.57-.02.37,1.39-1.96,1.39-1.96l-3.85-4.46-1.87-1.42Z"/><path class="cls-13" d="M70.91,55.12s-8.9-1.87-11.22,6.6c0,0-2.82,1.7-2.83,1.27-.07-1.09-.07-2.18,0-3.28.12-.79,2.36-3.64,2.76-4.03.39-.39,5.09-3.79,5.09-3.79,0,0,2.24-1.08,3.42-.48,1.18.59,3.24,1.19,3.53,1.95.28.58.67,1.05,1.19,1.41l-1.94.33Z"/><path class="cls-13" d="M67.83,55.8c0,.25-.05.49-.15.71-.09.23-.23.43-.4.61-.18.17-.38.31-.6.4s-.47.15-.71.15-.48-.05-.71-.15-.43-.23-.6-.4-.31-.38-.41-.61c-.09-.22-.14-.46-.14-.71s.05-.48.14-.71.23-.43.41-.6.38-.31.6-.41c.23-.09.46-.14.71-.14s.48.05.71.14c.23.1.43.23.6.41.17.18.31.38.4.6.1.23.15.47.15.71Z"/><path class="cls-10" d="M196.63,123c-.31-.2-.51-.48-.59-.84-.08-.36-.03-.7.16-1.02.19-.32.46-.52.82-.61s.7-.05,1.02.14c.62.38,12.99,7.95,17.15,16.81,8.22,2.13,14.02.67,17.74-4.46,4.12-5.7,5.4-11.05,3.82-15.91-3.05-9.34-15.72-14.52-18.89-15.68-1.16,4.94-4.17,10.73-10.49,17.16-.12.14-.27.24-.44.32s-.34.12-.53.13-.36-.02-.54-.09c-.18-.07-.33-.17-.46-.3-.14-.13-.23-.28-.31-.45s-.1-.35-.1-.54c0-.19.04-.36.12-.53.07-.17.18-.32.32-.45,9.6-9.76,12.64-19.68,8.56-27.95-2.25-4.56-6.53-8.27-11.97-10.79l-.08.58s17.71,33.13-14.39,34.88c0,0,4.28,13.26-21.55,10.63-.89-.09-1.7-.14-2.46-.15,14.26,3.79,27.72,11.64,40.16,23.54,2.1.43,3.88,1.45,5.32,3.05,3.28-2.23,4.86-4.72,4.81-7.61-.16-9.42-17.04-19.75-17.21-19.85Z"/><path class="cls-10" d="M196.63,123c-.31-.2-.51-.48-.59-.84-.08-.36-.03-.7.16-1.02.19-.32.46-.52.82-.61s.7-.05,1.02.14c.62.38,12.99,7.95,17.15,16.81,8.22,2.13,14.02.67,17.74-4.46,4.12-5.7,5.4-11.05,3.82-15.91-3.05-9.34-15.72-14.52-18.89-15.68-1.16,4.94-4.17,10.73-10.49,17.16-.12.14-.27.24-.44.32s-.34.12-.53.13-.36-.02-.54-.09c-.18-.07-.33-.17-.46-.3-.14-.13-.23-.28-.31-.45s-.1-.35-.1-.54c0-.19.04-.36.12-.53.07-.17.18-.32.32-.45,9.6-9.76,12.64-19.68,8.56-27.95-2.25-4.56-6.53-8.27-11.97-10.79l-.08.58s17.71,33.13-14.39,34.88c0,0,4.28,13.26-21.55,10.63-.89-.09-1.7-.14-2.46-.15,14.26,3.79,27.72,11.64,40.16,23.54,2.1.43,3.88,1.45,5.32,3.05,3.28-2.23,4.86-4.72,4.81-7.61-.16-9.42-17.04-19.75-17.21-19.85Z"/><path class="cls-13" d="M231.79,127.28c-5.65,10.59-18.91,6.33-18.91,6.33.9,1.21,1.68,2.49,2.33,3.84,8.22,2.13,14.02.67,17.74-4.46,4.13-5.7,5.4-11.05,3.82-15.91-3.05-9.34-15.72-14.52-18.89-15.68-.02.02,20.9,12.8,13.91,25.87Z"/><path class="cls-13" d="M198.67,124.34l-2.04-1.33s17.34,14.06,13.24,21.08c-.89,1.63-1.99,3.09-3.31,4.39.92.53,1.74,1.19,2.46,1.97,3.28-2.23,4.86-4.72,4.81-7.61-.12-7.41-10.64-15.4-15.16-18.49Z"/><path class="cls-7" d="M161.08,194.42c-.88-.48-1.65-1.09-2.31-1.84-2.55.88-5.16,1.46-7.83,1.74-14.43,1.54-24.28-3.29-30.92-9.73.28.38.54.75.84,1.08,4.6,5.73,10.68,9.6,18.14,11.56h.06c.29,0,.55.07.8.22,3.04.72,6.12,1.13,9.24,1.24,5.73.29,11.34-.39,16.84-2.04-1.71-.56-3.33-1.31-4.86-2.24Z"/><path class="cls-7" d="M177.58,154.68c.47-.04.92.03,1.35.21,1.69.69,3.16,3.06,4.24,6.34.54-1.39,1.3-2.61,2.41-3.21.64-.34,1.31-.47,2.02-.38l-.7-8.45c-3.93-1.15-7.53-2.95-10.81-5.41.76,3.59,1.24,7.23,1.47,10.9Z"/><path class="cls-2" d="M118.23,138.63c-1.79.29-3.59.44-5.41.44-.74,0-1.48-.04-2.23-.09v.08c-.86,11.39-.74,32.86,10.3,46.64-13.29-31.98-2.64-46.58-2.64-46.58l-.03-.49Z"/><path class="cls-14" d="M147.68,124.04s10.19,15.03,28.75,6.49l2.24.57s1.94,4.35-5.76,5.91c-7.69,1.55-23.79-2.69-25.23-12.96Z"/><path class="cls-14" d="M118.33,128.36s4.53,7.9,24.73-4.41c0,0-13.24,15.59-32.25,12.32l.63-5.46,7.83-2.78-.94.32Z"/><path class="cls-9" d="M194.6,171.1l8.44,3.49-1.25,10.96-11.8-5.65,4.61-8.8Z"/><path class="cls-10" d="M177.3,202.8l-5.36-5.07s-.07-.08-.1-.12h-.65s1.37,3.24,2.96,8.41c.99-1.01,2.02-2.09,3.15-3.22Z"/><path class="cls-10" d="M202.99,188.18c.05.41.05.82,0,1.22,2.01,1.04,2.63,2.47,2.77,3.52.24,1.71-.54,3.62-2.32,5.58,2.31,1.27,11.03,6.49,14.43,14.95.07.17.1.34.1.52,0,.18-.04.35-.1.52-.07.17-.17.31-.3.44-.13.13-.28.22-.44.29-.16.07-.33.1-.51.1,0,0-2.36,21.52-30.19.54.11.19,11.83,18.88,22.16,19.26,4.09.16,7.52-1.33,9.89-4.27,3.98-4.94,4.71-13.4,2.05-23.82-2.07-8.04-10.18-14.49-17.53-18.84Z"/><path class="cls-10" d="M185.81,204.06c.13.12.24.26.31.42.08.17.12.34.13.52,0,.18-.02.35-.08.53s-.15.32-.28.45c-3.07,3.37-5.31,5.26-6.98,6.3-.28,1.28-.29,2.92.14,3.31.14.13.54.09,1.08-.08,2.68-.87,8.7-6.79,13.1-11.11,2.53-2.48,4.7-4.61,6.27-5.91,2.41-1.97,3.74-3.92,3.56-5.19-12.17,14.3-17.24,10.77-17.24,10.77Z"/><path class="cls-13" d="M142.73,174.97h11.44l-.32-3.66-12.73.27,1.61,3.39Z"/><path class="cls-11" d="M150.28,177.19c-.89.01-1.74.2-2.55.58-.81.38-1.51.9-2.08,1.58,1.08,1.49,2.45,2.58,4.18,2.58h.29c.66-.03,1.18-.31,1.57-.83.66-1.02,1.02-2.13,1.08-3.33-.79-.37-1.61-.57-2.48-.58Z"/><path class="cls-15" d="M152.76,176.44c-.41-.3-1.08-.15-1.52,0-.42.16-.79.38-1.14.66-.64.54-1.03,1.22-1.16,2.04,0,.13.17.24.23.1.32-.61.76-1.1,1.33-1.48.26-.18.55-.32.85-.42.17-.05.35-.09.54-.09.22,0,.39.05.62,0,.19-.03.32-.14.37-.33.06-.19.01-.35-.14-.48Z"/><path class="cls-7" d="M172.05,191.58c-.23,0-.46-.02-.69-.05-1.03-.15-1.99-.49-2.89-1.04-.89-.55-1.64-1.26-2.23-2.11-.56-.78-.93-1.65-1.12-2.59s-.17-1.88.04-2.82c.12-.38.11-.76-.01-1.13s-.35-.68-.67-.91c-.82-.64-1.98-.75-2.39-.54-1.7.86-2.85,3.17-2.88,5.73,0,1.27.28,4.38,3.21,5.95l.1.06c.06.04,3.94,2.49,8.19,2.76.35-.15.69-.15,1.04,0,1.55-.02,2.98-.43,4.3-1.23.15-.1.32-.16.5-.19.18-.04.36-.03.54.01.18.04.34.11.49.22.15.1.27.23.37.39.09.16.16.32.19.51.03.18.02.36-.02.54s-.12.34-.23.48c-.1.15-.24.27-.4.36-.73.45-1.51.81-2.32,1.08l4.04,3.82c3.15-3.14,6.57-6.45,9.69-9.23l-3.89-3.46-2.39-.21s-4.96,5.32-10.58,3.6Z"/><path class="cls-2" d="M181.93,177.12c-2.13-5.02-8.37-6.81-13.39-5.84-2.32.44-4.66,2.08-5,4.58-.09.56-.04,1.1.15,1.64s.5.98.93,1.35c.88.8,1.56.87,2.67.68.06-.02.09-.06.09-.13s-.03-.1-.09-.13c-.81-.11-1.49-1.04-1.62-1.79-.21-.8-.09-1.55.36-2.23,1.08-1.57,3.06-1.86,4.81-1.91,3.78-.1,8.65.32,10.88,3.9.09.13.26.02.2-.11Z"/><path class="cls-2" d="M182.62,166.09c-.05-.69-.1-1.36-.12-2.05-.08-1.54-.58-2.93-1.48-4.18-.48-.74-1.13-1.28-1.94-1.62-.39-.16-.79-.22-1.21-.17-.42.05-.8.2-1.14.45-.59.41-1.02.95-1.28,1.62-.29.79-.07,1.71.03,2.52,0,.13.05.19.18.21.13.02.2-.04.23-.16.19-.66.47-1.28.84-1.86.24-.42.54-.8,1.02-.84.47-.04.86.34,1.17.7.35.42.63.89.83,1.4.18.44.37,1.04.54,1.55.22.6.47,1.18.77,1.74.49,1.03.89,2.17,1.68,3.04.07.07.15.07.24.02.08-.05.11-.12.09-.22-.21-.7-.35-1.42-.44-2.15Z"/><path class="cls-7" d="M183.9,173.46c-.2-.57-.5-1.08-.9-1.54-.08-.17-.17-.35-.27-.54-.5-1.07-1.1-2.09-1.78-3.06-.92-1.23-2.05-2.22-3.4-2.96-.17-.26-.48-.57-.63-.84-.09-.16-.6.26-.89.17-.13-.05-.19.15-.09.22.44.49.73,1.06.89,1.7.07,1.53.51,2.95,1.31,4.26.46.67,2.85,2.44,2.88,2.46.03.02.4.6.44.69.05.08.91,1.19,1.57.97.09-.03.73-.08.79-.2.09-.22.12-.44.09-.68.07-.22.07-.43,0-.65Z"/><path class="cls-7" d="M54.47,126.78l16.86-6.57-19.73.31,2.87,6.26Z"/><path class="cls-7" d="M91.49,141.53l-1.88-4.2-7.03,4.72c-.49.33-1.02.61-1.57.83s-1.13.38-1.71.47c-.59.09-1.18.13-1.78.09-.6-.03-1.18-.13-1.76-.29-.58-.16-1.13-.38-1.66-.66s-1.02-.61-1.47-.99c-.46-.39-.86-.81-1.23-1.29s-.67-.98-.93-1.52l-3.78-8.02-7.1-6.65-5.14,2.74,9.07,5.33,8.29,18.84,1.08,2.85,18.59-12.28Z"/><path class="cls-5" d="M131.58,144.9s-6.24-.52-8.22-3.51c0,0-.05,4.67,4.2,5.77,0,0-1.94.9-4.55-.47,0,0,.85,3.24,3.07,3.53-.59,1.76-.89,3.56-.88,5.41,0,5.95,2.86,10.74,6.38,10.74s6.39-4.81,6.39-10.74-2.86-10.72-6.39-10.72Z"/><path class="cls-5" d="M137.31,138.18c-4.58-2.7-9.72-.39-9.95-.28-.2.09-.39.22-.54.39s-.27.35-.35.57c-.08.21-.11.43-.1.65.01.22.06.44.16.65s.22.39.39.54c.17.15.35.27.57.35.21.08.43.11.65.1.22-.01.44-.06.65-.16.04,0,3.78-1.67,6.8.12.27.16.55.24.86.24.38,0,.72-.12,1.03-.35.31-.23.51-.54.61-.9.1-.37.08-.73-.06-1.09s-.38-.63-.7-.82Z"/><path class="cls-5" d="M160.17,144.12c3.32-1.08,6.61,1.31,6.66,1.35.3.22.64.34,1.02.34.36,0,.7-.1.99-.32.3-.21.51-.49.62-.84.12-.34.12-.69.02-1.04-.11-.35-.31-.64-.6-.85-.19-.15-4.73-3.53-9.78-1.86-.21.07-.41.18-.58.33-.17.15-.31.32-.41.53-.1.2-.16.42-.18.65-.02.22.01.45.08.66s.18.41.33.58c.15.17.32.31.53.41.2.1.42.16.65.18.22.02.45-.02.66-.08l-.02-.02Z"/><path class="cls-5" d="M155.05,159.06s2.05-1.96,4.39-1.63c1.67.23,3.24,1.57,4.65,3.99.11.2.26.36.44.5.18.14.38.23.6.29s.44.07.66.04c.22-.03.43-.1.63-.21.19-.11.36-.26.49-.44.14-.18.23-.38.29-.6.06-.22.07-.44.05-.66-.03-.22-.1-.43-.22-.63-1.97-3.39-4.38-5.29-7.16-5.65-3.99-.54-7.06,2.46-7.19,2.59-.16.16-.29.34-.38.55s-.13.42-.13.65c0,.22.04.44.12.65.09.21.21.39.36.55.16.16.34.29.55.37.21.09.43.14.65.14.22,0,.44-.04.65-.12.21-.09.39-.21.55-.36v-.02Z"/><path class="cls-5" d="M153.94,169.61l-12.85-.2c-.53-.01-.97.19-1.32.59-.34.4-.47.86-.39,1.38.09.57,2.32,13.59,10.44,13.59h.54c.74-.04,1.45-.23,2.11-.58.66-.35,1.21-.82,1.67-1.41,2.83-3.64,1.62-11.09,1.48-11.94-.06-.41-.26-.76-.57-1.03s-.69-.41-1.11-.41ZM152.55,176.33c0,.33-.04.65-.07.97,0,.1-.01.2-.03.3-.05,1.17-.4,2.26-1.03,3.24-.33.45-.77.68-1.32.7-1.74.13-3.14-.95-4.22-2.47-.86-1.28-1.54-2.65-2.04-4.11-.28-.77-.49-1.5-.67-2.13l9.25.15c.06.61.11,1.29.13,1.98.02.45.02.93,0,1.38Z"/><g class="cls-18"><path class="cls-5" d="M239.66,116.16c-3.58-10.94-17.73-16.54-20.95-17.68.41-3.89-.25-7.59-1.97-11.09-5.52-11.19-21.61-17.81-38.23-15.74-7.9.99-15.82,1.32-23.78,1.01-.06-.14-.14-.27-.24-.39-4.32-5.2-18.82-16.66-33.81-16.84-8.46-.11-15.76,3.31-21.7,10.13-1.31,1.48-2.47,3.07-3.51,4.75-5.19-3.81-10.91-6.48-17.15-8.02-.02-.75-.11-1.49-.27-2.23-.16-.73-.39-1.44-.69-2.13-.3-.69-.66-1.34-1.09-1.96s-.91-1.19-1.44-1.71c-.54-.53-1.12-.99-1.74-1.41-.63-.41-1.29-.76-1.98-1.05-.69-.28-1.41-.49-2.15-.64-.74-.15-1.48-.22-2.23-.22s-1.49.07-2.23.22c-.73.15-1.45.36-2.15.64-.69.29-1.35.64-1.98,1.05-.63.41-1.21.88-1.74,1.41-.54.52-1.02,1.09-1.44,1.71s-.79,1.27-1.08,1.96c-.3.69-.53,1.4-.69,2.13-.16.73-.24,1.48-.26,2.23-2.55.63-5.04,1.47-7.46,2.5-2.42,1.04-4.73,2.26-6.95,3.68-2.22,1.41-4.31,2.99-6.27,4.74-1.96,1.75-3.77,3.65-5.42,5.7-1.65,2.05-3.13,4.21-4.43,6.49s-2.41,4.66-3.33,7.13c-.92,2.46-1.63,4.99-2.14,7.57-.51,2.58-.8,5.19-.89,7.82H6.54c-.42,0-.84.04-1.27.13-.42.08-.82.21-1.21.37-.4.16-.77.36-1.12.6-.35.24-.68.51-.98.81s-.57.63-.81.98-.44.73-.6,1.12c-.16.4-.29.8-.37,1.22s-.13.84-.13,1.27.04.85.13,1.27.21.82.37,1.22c.16.39.36.77.6,1.12s.51.68.81.98.63.57.98.81c.35.23.72.44,1.12.6.39.16.8.29,1.21.37.42.08.84.13,1.27.13h41.07l13.61,13.21,9.94,20.01c-2.3,1.62-4.46,3.21-6.35,4.6-.41.3-.78.65-1.08,1.05s-.55.84-.73,1.31c-.18.47-.29.96-.32,1.47-.04.51,0,1.01.12,1.5.13.63.4,1.19.82,1.67.42.49.94.84,1.54,1.06.35.12.71.19,1.08.22-.29,1.46-.33,3.27.69,4.57.4.48.88.84,1.45,1.09.57.24,1.17.35,1.79.31.39,0,.78-.04,1.17-.1.9-.18,1.76-.45,2.59-.83,1.62,2.02,20.73,25.98,21.07,50.39.11,11.33-.58,22.62-2.1,33.85-.34,2.6-.17,5.17.54,7.69,1.35.74,2.7,1.45,4.09,2.14l.51.24c-1.63-3.02-2.22-6.22-1.77-9.63,1.53-11.4,2.23-22.85,2.11-34.35-.34-24.35-17.75-47.38-21.36-51.9,3.78-2.11,8.32-5.29,12.52-8.21,3.09-2.16,6.02-4.21,7.92-5.29.65-.38,1.26-.77,1.82-1.15l12.22,19.68c.09.15.2.27.33.38,1.63,4.24,3.84,8.15,6.65,11.72,3.24,4.08,7.2,7.3,11.85,9.66l-5.58.22c-.33.02-.63.11-.9.3-.27.18-.47.43-.6.72-.14.35-14.26,33.82-4.82,75.56l.37.09c.97.28,1.97.54,2.96.76l.37.09c-9.02-37.41,1.6-68.34,3.81-74.18l12.6-.54c3.41.84,6.87,1.32,10.38,1.45.85.03,1.68.05,2.52.05,6.85.09,13.43-1.2,19.74-3.85h.19c.08,0,.16,0,.23,0v.03l5.11,4.83c-1.16,1.18-2.29,2.34-3.4,3.48-.67.68-1.1,1.49-1.29,2.43-.2.93-.13,1.85.21,2.74.2.59.53,1.08.99,1.49.46.41.99.67,1.6.79.22.04.45.06.68.06h.14c-.03,1.39.21,3.02,1.31,4.04.68.62,1.47.92,2.38.9.59-.01,1.16-.11,1.72-.3.92-.33,1.77-.78,2.57-1.34.04.14.09.27.17.39.34.54,5.88,9.39,13.07,15.34l4.37,25.57c.42,2.57.22,5.09-.59,7.57.15-.06.28-.14.42-.2,1.2-.6,2.39-1.23,3.55-1.88.31-2.02.3-4.03-.03-6.04l-3.78-22.2c2.48,1.48,5.07,2.46,7.64,2.55h.66c1.12.03,2.22-.07,3.32-.3,1.09-.23,2.15-.57,3.17-1.04,1.02-.47,1.96-1.05,2.85-1.73s1.68-1.46,2.39-2.33c4.6-5.71,5.53-15.14,2.63-26.49-2.35-9.23-11.34-16.34-19.29-20.99l.46-10.89c1.29-.57,2.44-1.34,3.45-2.31.61-.62,1.18-1.28,1.69-1.99s.96-1.45,1.35-2.23c.4-.78.72-1.58.99-2.41.27-.83.46-1.68.6-2.54.14-.86.2-1.73.2-2.6,0-.88-.07-1.74-.21-2.6-.14-.86-.35-1.7-.62-2.53-.27-.83-.6-1.64-1.01-2.41,3.92-2.77,5.86-6.12,5.81-9.96-.02-.63-.08-1.24-.19-1.85,1.7.34,3.43.53,5.16.54,5.8,0,10.34-2.23,13.55-6.67,4.7-6.53,6.16-12.8,4.22-18.65ZM66.73,54.36c.49,0,.98.05,1.47.14.49.09.96.22,1.42.4.46.18.91.4,1.33.65s.82.55,1.19.88.71.69,1.01,1.08c.31.39.57.8.81,1.24.23.44.42.89.57,1.36.15.47.26.95.31,1.44-5.42-.93-10.84-.93-16.27,0,.06-.49.17-.98.32-1.45.15-.47.34-.93.57-1.36.23-.44.51-.85.81-1.24s.65-.75,1.02-1.08c.37-.33.77-.62,1.19-.88.43-.26.88-.47,1.34-.65.46-.17.94-.31,1.43-.4.49-.09.98-.13,1.48-.13ZM66.73,64.26c4.9-.02,9.66.74,14.31,2.3,4.64,1.55,8.91,3.81,12.81,6.77-1.88,4.01-2.61,8.22-2.21,12.63.9,9.9,7.44,17.91,11.42,21.94H21.67c.05-1.44.17-2.89.36-4.32s.44-2.85.77-4.27c.32-1.41.71-2.8,1.17-4.17.46-1.37.98-2.72,1.57-4.04.58-1.32,1.23-2.61,1.94-3.88.71-1.26,1.48-2.48,2.31-3.67.83-1.18,1.71-2.33,2.65-3.43.94-1.1,1.93-2.16,2.96-3.16s2.13-1.96,3.26-2.86,2.3-1.75,3.51-2.54c1.21-.79,2.46-1.52,3.74-2.19,1.28-.67,2.59-1.28,3.93-1.82,1.34-.55,2.7-1.02,4.08-1.44,1.39-.41,2.79-.76,4.21-1.03,1.42-.28,2.84-.49,4.29-.63,1.44-.14,2.88-.21,4.32-.21ZM103.64,117.31h-21.7c-.16-1.63-.68-3.83-2.27-5.35-.26-.25-.53-.47-.83-.66h25.94c-.93,1.9-1.31,3.91-1.14,6.02ZM3.45,114.39c0-.41.08-.8.23-1.18s.38-.71.67-1.01.62-.51,1-.67c.38-.16.77-.23,1.18-.24h65.06c-.78.44-1.41,1.04-1.89,1.79-.79,1.31-1.12,2.72-.99,4.24l-20.47.17H6.54c-.41,0-.8-.08-1.18-.24-.38-.16-.71-.39-1-.67s-.52-.63-.67-1.01-.23-.77-.23-1.18ZM64.11,132.33c-.08-.17-.2-.33-.33-.46l-11.35-11,18.3-.15h.2c.08-.02.17-.03.25-.06h.07c.09-.03.17-.06.25-.1l.07-.04c.07-.04.14-.09.21-.14l.06-.05c.07-.06.13-.12.18-.18l.04-.06c.05-.07.1-.14.14-.21l.03-.06c.04-.07.07-.15.1-.23v-.08c0-.08.03-.15.04-.23,0-.04,0-.08,0-.12,0-.04,0-.08,0-.12,0-.16-.03-.32-.07-.47-.19-.61-.51-2.46.22-3.59.41-.63,1.15-.99,2.25-1.13s1.92.07,2.5.61c1.15,1.08,1.31,3.41,1.28,4.45v.2s0,.07,0,.1v.34l.03.17.07.17.03.09,10.68,22.17c-4.5,2.53-10.18,6.31-15.48,10.03l-9.76-19.85ZM95.76,154.01c-2.02,1.16-4.86,3.15-8.17,5.45-5.76,4.02-13.63,9.51-16.83,10.04-.83.14-1.13,0-1.17-.05-.3-.39-.11-1.95.4-3.24,2.1-.88,4.98-2.6,9.03-5.76.18-.14.33-.3.44-.5.11-.2.18-.41.21-.64.03-.22.01-.44-.05-.66s-.16-.42-.3-.6-.31-.32-.51-.44c-.19-.11-.41-.18-.63-.21-.22-.03-.45-.01-.67.05-.22.06-.42.16-.59.3-8.21,6.41-10.44,5.9-10.67,5.82-.04,0-.11-.04-.18-.32-.07-.34-.04-.68.1-1.01.14-.32.34-.58.64-.79,15.22-11.22,27.26-18.83,29.92-18.92.51,0,1.4.04,1.5.61.2,1.08-1.34,3.94-5.85,5.49-.23.06-.44.16-.63.3s-.34.32-.46.53-.18.43-.2.67c-.02.23,0,.47.08.69.07.22.19.43.35.6s.35.31.57.41c.22.09.44.15.68.15s.47-.05.69-.14c2.47-.78,4.57-2.14,6.3-4.08.49.32.77.77.82,1.35.02,1.02-1.26,2.84-4.83,4.89ZM101.9,153.6c1.39-1.47,2.1-2.98,2.11-4.48,0-1.21-.46-2.9-2.57-4.37.22-.74.26-1.48.14-2.24-.32-1.71-1.78-3.5-4.97-3.39-.95.03-2.39.54-4.16,1.39l-9.55-19.8h21.24c.39,1.68.89,3.33,1.5,4.94.6,1.63,1.49,3.56,2.99,4.65-.09.17-.16.35-.19.54-.07.34-.45,2.57-.8,6.02-.06.14-.1.29-.13.43-.02.18,0,.36.04.54-.57,6.4-.9,16.35,1.02,26.55l-6.68-10.79ZM179.17,200.39l-3.4-3.21c.65-.24,1.28-.55,1.86-.92.19-.12.35-.27.48-.45.13-.19.22-.39.27-.6.05-.22.06-.44.03-.67-.04-.22-.11-.43-.23-.62s-.27-.35-.45-.48-.39-.22-.6-.27c-.22-.05-.44-.06-.66-.03-.22.04-.43.11-.62.23-1.24.75-2.59,1.14-4.04,1.18-.4-.15-.79-.15-1.19,0h-.03c-4.1-.3-7.85-2.67-7.91-2.71-.04-.03-.08-.05-.13-.07-2.76-1.47-3.04-4.43-3.03-5.64,0-2.4,1.13-4.63,2.7-5.43.75-.14,1.42.03,2.02.51.27.19.45.44.56.76.1.31.11.63.01.94-.22.98-.24,1.97-.04,2.96.2.98.59,1.89,1.18,2.71.63.9,1.4,1.64,2.33,2.21.93.57,1.94.93,3.02,1.09.61.07,1.22.06,1.82-.05,1.25-.22,2.33-.77,3.24-1.66,1.73-1.69,2.53-4.33,2.22-7.4-.04-.74-.22-1.45-.55-2.11-.33-.67-.78-1.24-1.35-1.71-1.18-.94-2.83-1.3-4.77-1.03-1.71.28-3.42.21-5.1-.19-.4-.1-.79-.23-1.17-.4-.56-.17-1.01-.5-1.35-.97-.08-.42,0-.8.23-1.16,1.02-1.98,3.12-2.76,4.7-3.06,2.4-.46,4.71-.19,6.93.81l.13.07s.07.04.11.06h.05c.3.17.58.36.84.59.21.17.41.35.6.54,2.43,2.35,4.73,6.23,3.36,12.02-.1.42-.05.82.16,1.2.21.38.52.64.93.78.06.03.12.05.19.06.46.11.9.04,1.3-.21.1-.07.2-.14.29-.23l4.25,3.79c-2.86,2.63-6.05,5.68-9.17,8.81h-.02ZM168.16,181.39c1.41.13,2.81.09,4.21-.11.78-.18,1.51-.08,2.2.32.41.41.62.91.62,1.49.19,2.03-.23,3.69-1.21,4.64-.63.63-1.39.88-2.27.77-1.26-.2-2.26-.82-2.98-1.87-.66-.9-.86-1.9-.62-2.98.18-.75.21-1.5.07-2.26h-.02ZM187.98,160.97c1.74,1.08.45,8.9-2.73,18.07.34-3.72.27-7.44-.23-11.15.12-2.99.95-6.63,2-7.19.26-.13.68.09.99.27h-.02ZM182.07,173.87c-.64-.88-1.36-1.68-2.16-2.41-.13-.12-.26-.24-.39-.34-.25-.22-.52-.43-.81-.61-.06-.05-.13-.08-.19-.13-1.04-2.89-2.86-9.73-.74-12.46.03-.05.07-.09.11-.13,1.34.72,4.06,7.28,4.19,16.08h-.02ZM190.94,189.38l-3.75-3.33c1.02-1.18,1.99-2.43,2.93-3.74.81.31,3.34,1.3,6.63,2.91-2.07,1.19-4,2.58-5.79,4.17h-.02ZM190.82,159.01l-.07-.09c0-.05,0-.1,0-.15l-.7-8.45c.95.19,1.94.34,2.97.47-.13.17-.21.34-.27.54l-1.93,7.68ZM197.77,147.78c-.19-.08-.39-.11-.59-.12-13.29-.2-20.84-7.13-23.73-10.48,1.08-.4,2.16-.85,3.24-1.38.19-.1.36-.24.5-.41.14-.17.24-.35.31-.56s.09-.42.08-.64-.07-.43-.17-.63c-.09-.2-.22-.37-.38-.52s-.35-.26-.55-.34-.42-.11-.64-.11-.43.05-.63.14c-6.32,3.04-11.98,3.59-16.83,1.63-5.59-2.26-8.82-7.35-10.16-9.97,15.06.93,32.85,6.67,50.85,22.9-.44.14-.88.3-1.29.49h-.02ZM111.79,131.41c.01-.1.01-.21,0-.31.56-.08,1.1-.23,1.62-.46,9.12-3.97,18.65-6.08,28.59-6.34-5.44,4.06-18.2,12.38-30.81,11.63.3-2.77.59-4.45.6-4.52ZM149.12,198.36c-3.09-.11-6.14-.52-9.14-1.22-.29-.17-.59-.24-.92-.24h-.04c-7.35-1.95-13.35-5.77-17.88-11.43-10.89-13.58-11.09-34.74-10.27-46.14.64.04,1.28.06,1.93.06,14.23,0,27.75-9.56,32.47-13.3,1.63,3.1,5.3,8.78,11.83,11.42,3.93,1.59,8.23,1.83,12.85.73,2.13,2.68,4.62,4.97,7.46,6.88s5.9,3.35,9.18,4.32l.65,7.81c-.65,0-1.25.15-1.81.45-1,.62-1.73,1.47-2.19,2.55-1.08-2.93-2.53-5.02-4.16-5.69-1.43-.59-2.91-.14-3.98,1.22-2.66,3.4-1.67,9.28-.64,13.02-1.95-.39-3.91-.4-5.86-.04-3.28.64-5.79,2.36-7.07,4.86-.34.58-.55,1.21-.63,1.88-.07.67,0,1.33.22,1.96-.14.05-.28.11-.41.18-2.73,1.39-4.52,4.7-4.55,8.43-.04,1.2.14,2.38.53,3.51.39,1.14.97,2.17,1.73,3.1.7.83,1.54,1.5,2.49,2.02,1.25.76,2.56,1.4,3.93,1.92-5.15,1.42-10.39,2-15.73,1.72ZM179.99,215.2c-.23.09-.48.14-.73.14-.24-.28-.31-1.58-.07-2.83,1.91-1.2,4.18-3.24,6.94-6.29.14-.17.24-.36.31-.57.07-.21.09-.42.08-.64s-.07-.42-.17-.62c-.09-.2-.22-.37-.39-.52-.16-.15-.34-.26-.55-.34s-.42-.11-.64-.11-.43.05-.63.14c-.2.09-.38.21-.53.36-6.19,6.79-8.05,6.48-8.04,6.48-.05-.06-.08-.13-.1-.19-.1-.28-.11-.56-.05-.84.07-.29.2-.53.4-.74,11.35-11.76,20.79-20.24,22.96-20.64.63-.11,1-.03,1.08.24.33.94-.59,3.59-4.18,5.51-.2.11-.37.25-.51.42-.14.18-.24.38-.31.59-.06.22-.08.44-.06.67.03.22.09.44.2.64s.25.37.43.51c.17.15.37.24.58.31.22.06.44.08.67.06.22-.03.43-.09.64-.2,1.98-1,3.58-2.43,4.81-4.28.31.21.5.5.57.86.13.89-.71,2.65-3.44,4.86-1.58,1.3-3.78,3.44-6.29,5.95-4.36,4.31-10.35,10.18-12.97,11.05ZM220.16,207.11c2.63,10.32,1.93,18.67-1.98,23.52-2.3,2.85-5.61,4.3-9.61,4.15-10.15-.37-21.76-18.92-21.88-19.1-.13-.22-.3-.4-.51-.54,2.55-2.11,5.61-5.07,9.19-8.58,2.35-2.31,4.57-4.49,6.04-5.7.03.02.06.04.08.06.1.05,10.11,5.18,13.51,13.66.13.32.34.58.63.78.29.19.6.3.95.3.22,0,.43-.04.64-.13s.39-.2.55-.36c.16-.16.29-.34.38-.55s.14-.43.14-.65-.04-.44-.13-.65c-3.29-8.14-11.43-13.32-14.22-14.91,1.63-1.94,2.38-3.81,2.13-5.54-.15-1.08-.77-2.57-2.75-3.66.02-.15.03-.29.03-.43,7.17,4.32,14.88,10.59,16.84,18.33h-.01ZM200.83,183.43c-2.85-1.5-5.77-2.84-8.77-4.03,1.16-1.86,2.22-3.78,3.19-5.75,1.2.79,2.51,1.29,3.93,1.5.47.07.94.1,1.41.1h.58l-.34,8.17ZM209.37,162.25c-.36,2.88-1.58,5.32-3.64,7.36-1.81,1.71-3.96,2.48-6.06,2.16-1.48-.24-2.74-.89-3.78-1.97-.16-.16-.34-.28-.55-.37-.21-.08-.43-.13-.65-.13s-.44.05-.65.13c-.21.09-.39.21-.55.37v.03c-.17.16-.31.33-.41.54-1.06,2.35-2.27,4.62-3.61,6.82.29-.92.58-1.87.85-2.83.39-1.37.72-2.66.98-3.85.16-.19.26-.41.32-.64l4.17-16.53c.18-.09.34-.21.48-.35,1.88-2.02,4.27-2.99,6.55-2.66,4.46.68,7.43,6.02,6.56,11.93h-.01ZM232.65,132.82c-3.6,4.97-9.24,6.4-17.22,4.37-4.28-8.9-16.59-16.43-17.22-16.81-.19-.1-.4-.17-.61-.19-.22-.03-.43-.01-.65.05s-.41.15-.58.28c-.18.14-.32.29-.44.48-.11.19-.18.39-.22.61s-.03.43.02.65c.05.21.14.41.26.59.13.18.28.33.46.45,4.69,2.84,16.91,11.89,17.03,19.56.04,2.71-1.41,5.05-4.42,7.17-1.44-1.52-3.18-2.5-5.23-2.94-16.86-16.08-35.56-24.83-55.61-25.98-6.19-.34-12.34.03-18.45,1.12-6.11,1.08-12.01,2.85-17.71,5.31-.76.33-1.08.18-1.21.13-.46-.19-1.18-.9-2.03-3.21-3.01-8.11-2.34-12.25,2.36-14.78,25.02-13.45,57.06-.39,57.38-.26.21.09.42.13.65.13s.44-.04.65-.13c.21-.09.39-.21.55-.37s.28-.34.37-.55c.08-.21.13-.43.13-.65s-.04-.44-.13-.65c-.08-.21-.21-.4-.36-.55s-.34-.29-.55-.37c-1.37-.57-33.84-13.83-60.3.4-.59.32-1.16.68-1.69,1.08-2.01-1.74-11.83-10.75-12.85-22.1-.36-4.22.45-8.2,2.44-11.93,0-.06.06-.11.08-.17,1.1-2.07,2.44-3.98,3.99-5.74,5.26-6.05,11.69-9.07,19.1-8.97,12.15.15,24.03,8.59,29.26,13.55-10.11-.79-16.67-2.49-17.99-3.03l-.19-.13c-.19-.11-.4-.19-.63-.22s-.44-.02-.66.04-.42.16-.6.29c-.18.14-.32.3-.44.49-.16.29-.24.59-.23.92,0,.33.1.63.28.9,1.27,1.92,14.83,3.55,14.97,3.56,11.51,1.31,23.02,1.24,34.51-.2,15.24-1.9,29.87,3.94,34.77,13.87,4.01,8.11.99,17.91-8.5,27.58-.16.16-.28.34-.36.55-.09.21-.13.43-.13.65s.04.44.13.65c.08.21.21.39.36.55.33.33.72.49,1.19.49s.88-.17,1.21-.51c6.2-6.31,9.25-12.03,10.49-16.94,3.63,1.39,15.42,6.49,18.31,15.34,1.58,4.73.33,9.97-3.74,15.58h-.01Z"/></g><path class="cls-5" d="M203.59,152.15c-.76-.19-1.52-.21-2.29-.08-.77.14-1.47.42-2.13.86-1.14.74-2.06,1.7-2.74,2.87s-1.08,2.44-1.17,3.79c-.13,1.51.1,2.96.69,4.35s1.45,2.58,2.61,3.55c.17.15.36.27.58.34.21.08.44.1.67.09s.44-.07.65-.18c.2-.1.38-.24.53-.42.15-.17.26-.37.33-.59s.09-.44.07-.67-.08-.44-.19-.65c-.1-.2-.24-.38-.42-.52-.49-.41-.9-.88-1.23-1.41-.34-.54-.58-1.11-.73-1.72s-.2-1.23-.16-1.86c.05-.63.19-1.23.44-1.82.71.44,1.1,1.08,1.17,1.92.01.22.06.43.15.63.09.2.21.37.37.52.16.16.34.27.54.35.2.08.42.13.64.13h.05c.22-.01.44-.06.64-.16.2-.09.38-.22.53-.39.15-.16.27-.35.34-.56s.11-.43.1-.65c-.06-.84-.28-1.63-.67-2.38-.39-.74-.91-1.38-1.57-1.91.4-.2.81-.26,1.24-.17.47.16.83.45,1.08.88.11.2.25.37.42.51.18.15.38.24.59.31.22.06.44.08.66.06.22-.03.44-.09.64-.2s.37-.25.51-.42c.15-.18.25-.38.31-.59.07-.22.09-.44.06-.66-.02-.22-.09-.44-.19-.64-.7-1.26-1.74-2.1-3.11-2.53Z"/><path class="cls-13" d="M136.04,150.96c0,.39-.05.76-.16,1.12s-.27.68-.47.95c-.2.28-.43.49-.7.64-.26.15-.54.22-.82.22s-.56-.07-.82-.22c-.26-.15-.49-.36-.7-.64-.2-.27-.35-.59-.46-.95s-.17-.73-.17-1.12.06-.77.17-1.13.27-.68.46-.95c.2-.28.44-.49.7-.64.27-.15.54-.22.82-.22s.56.07.82.22c.27.15.5.36.7.64.2.27.36.59.47.95s.16.73.16,1.13Z"/><path class="cls-13" d="M131.44,153.49c0,.36-.13.67-.38.93s-.56.39-.93.39-.67-.13-.92-.39-.39-.56-.39-.93.13-.67.39-.92.56-.39.92-.39.67.13.93.39.38.56.38.92Z"/><path class="cls-8" d="M97.82,44.62c-2.36.97-4.59,1.56-6.69,1.75-2.08.18-3.93.05-5.54-.4-1.61-.44-2.98-1.1-4.1-1.98l1.81-6.04.6-.25c1.65,1.11,3.45,1.79,5.4,2.04,1.96.24,3.99-.08,6.1-.96,1.82-.75,3.03-1.69,3.63-2.83.59-1.15.63-2.4.08-3.73-.33-.8-.77-1.42-1.29-1.83-.53-.43-1.22-.69-2.06-.79-.85-.11-1.91-.07-3.19.13l-4.81.81c-3.35.58-6.1.37-8.27-.65-2.18-1.01-3.8-2.82-4.88-5.42-.8-1.93-1.03-3.82-.67-5.69.35-1.86,1.28-3.57,2.79-5.15,1.52-1.57,3.56-2.89,6.13-3.96,2.64-1.08,5.03-1.67,7.19-1.75,2.15-.08,4.18.33,6.08,1.23l-1.46,5.96-.58.25c-1.39-.61-2.81-.91-4.27-.9-1.45,0-2.97.33-4.58.98-1.85.77-3.11,1.68-3.81,2.73-.71,1.06-.82,2.16-.33,3.31.43,1.07,1.12,1.79,2.06,2.15.96.36,2.34.38,4.15.04l4.88-.92c3.61-.68,6.51-.49,8.69.56,2.19,1.06,3.84,2.93,4.96,5.63.89,2.13,1.19,4.18.92,6.15-.27,1.96-1.15,3.76-2.65,5.4-1.49,1.63-3.58,3-6.27,4.13Z"/><path class="cls-8" d="M136.02,21.99l-17.69,2.9c.59,2.38,1.56,4.01,2.9,4.9,1.33.89,3.01,1.17,5.04.83,1.57-.26,2.8-.76,3.69-1.5.89-.75,1.53-1.77,1.94-3.06l.52-.08,5.06,2.19c-.58,2.07-1.68,3.85-3.29,5.35-1.61,1.49-3.93,2.48-6.96,2.98-2.85.46-5.4.32-7.65-.42-2.24-.73-4.1-2.07-5.58-4.02-1.47-1.96-2.46-4.47-2.96-7.54-.51-3.13-.36-5.85.46-8.19.83-2.34,2.17-4.21,4.02-5.6,1.84-1.39,4.03-2.28,6.54-2.69,3.89-.64,7.03-.09,9.44,1.63,2.4,1.72,3.93,4.58,4.58,8.56.23,1.45.38,2.57.42,3.38l-.48.4ZM129.33,18.51c-.41-2.08-1.14-3.53-2.21-4.33-1.06-.82-2.45-1.08-4.19-.79-3.5.57-5.23,2.91-5.19,7.02l11.58-1.9Z"/><path class="cls-8" d="M168.01,23.15l-17.88-1.1c.05,2.45.63,4.25,1.73,5.42,1.11,1.17,2.68,1.81,4.71,1.94,1.59.1,2.92-.11,3.96-.65,1.04-.54,1.9-1.4,2.56-2.56l.54.04,4.44,3.27c-1.03,1.88-2.5,3.36-4.42,4.46-1.91,1.09-4.39,1.55-7.46,1.35-2.86-.18-5.31-.88-7.33-2.08-2.03-1.22-3.54-2.95-4.54-5.19-.99-2.23-1.39-4.91-1.19-8.02.19-3.15.95-5.78,2.27-7.88,1.32-2.09,3.03-3.61,5.15-4.54,2.11-.94,4.44-1.33,6.98-1.17,3.93.24,6.88,1.47,8.83,3.69,1.96,2.21,2.81,5.33,2.56,9.35-.1,1.46-.22,2.59-.35,3.4l-.56.27ZM162.28,18.28c.08-2.13-.31-3.7-1.17-4.73-.86-1.03-2.17-1.59-3.92-1.71-3.54-.22-5.76,1.68-6.65,5.71l11.73.73Z"/><path class="cls-8" d="M188.28,41.21l-7-2.13,4.23-13.88-5.65-25.21,7.48,2.29,3.85,16.38.6.19,12.15-11.48,7.31,2.23-18.75,17.73-4.23,13.88Z"/><path class="cls-8" d="M213.1,53.25c-2.33-1.39-4.1-3.09-5.29-5.1-1.2-2.02-1.73-4.24-1.6-6.69.14-2.46.98-5,2.54-7.63,1.58-2.63,3.42-4.57,5.5-5.85,2.09-1.28,4.32-1.86,6.67-1.77,2.34.1,4.69.84,7.02,2.23,2.34,1.41,4.11,3.11,5.31,5.13,1.19,2.02,1.73,4.25,1.6,6.71s-.98,5-2.56,7.63c-1.56,2.63-3.39,4.57-5.48,5.83-2.1,1.28-4.32,1.86-6.67,1.77-2.35-.1-4.7-.85-7.04-2.25ZM216.14,48.17c3.72,2.22,7.03.9,9.94-3.98,1.51-2.54,2.15-4.68,1.9-6.42-.25-1.75-1.29-3.17-3.1-4.25-3.71-2.21-7.02-.86-9.94,4.02-2.91,4.88-2.5,8.42,1.21,10.63Z"/><path class="cls-8" d="M235.06,69.73c-2.24-2.21-3.29-4.45-3.15-6.71.14-2.27,1.32-4.53,3.56-6.81l12.96-13.19,4.98,4.9-12.33,12.56c-1.2,1.21-1.81,2.34-1.83,3.42-.02,1.08.53,2.16,1.63,3.23,1.38,1.36,2.89,1.96,4.54,1.81,1.67-.16,3.46-1.2,5.38-3.15l10.23-10.42,5,4.9-19.54,19.9-4.81-4.71,2.85-2.92-.27-.46c-1.77.51-3.39.59-4.85.25-1.46-.35-2.91-1.22-4.33-2.6Z"/><path class="cls-8" d="M251.13,85.95l31.52-19.27,7.73,12.67c2,3.26,2.76,6.18,2.27,8.75-.47,2.58-2.04,4.68-4.69,6.29-1.92,1.18-3.79,1.65-5.6,1.42-1.81-.22-3.63-1.09-5.46-2.6l-.46.27c.19,1.25.05,2.43-.42,3.54-.47,1.13-1.39,2.48-2.73,4.08l-7.48,8.9-3.92-6.42,7.54-8.85c.75-.89,1.26-1.7,1.54-2.42.29-.71.36-1.45.23-2.21-.14-.77-.51-1.64-1.1-2.6l-2.04-3.33-13.13,8.04-3.81-6.25ZM276.48,86.83c1.84,3.01,4.18,3.66,7,1.94,2.84-1.75,3.34-4.14,1.5-7.15l-3.48-5.67-8.5,5.21,3.48,5.67Z"/><path class="cls-8" d="M286.08,132.79l-5.46-17.06c-2.27.94-3.74,2.14-4.42,3.58-.68,1.46-.71,3.16-.08,5.1.48,1.53,1.17,2.67,2.04,3.44.88.76,1.97,1.25,3.29,1.46l.17.52-1.42,5.33c-2.14-.28-4.07-1.1-5.79-2.48-1.71-1.38-3.03-3.53-3.96-6.46-.88-2.74-1.11-5.27-.71-7.6.4-2.33,1.46-4.38,3.17-6.13,1.72-1.74,4.06-3.08,7.02-4.04,3.01-.96,5.73-1.2,8.17-.73,2.43.47,4.46,1.52,6.1,3.13,1.65,1.63,2.86,3.65,3.65,6.06,1.19,3.76,1.11,6.96-.25,9.58-1.35,2.64-3.95,4.57-7.79,5.81-1.39.44-2.48.75-3.27.92l-.46-.44ZM288.54,125.69c2.01-.71,3.34-1.66,3.98-2.83.64-1.17.69-2.59.17-4.27-1.08-3.36-3.66-4.72-7.73-4.08l3.58,11.19Z"/><path class="cls-8" d="M275.57,151.59c-.2-1.89-.16-3.65.13-5.27.29-1.63.77-3.04,1.44-4.25.67-1.2,1.47-2.1,2.42-2.73l4.58,3.44.04.54c-1.16,1.04-1.98,2.22-2.48,3.54-.49,1.32-.66,2.71-.5,4.19.14,1.36.48,2.36,1.04,3,.55.64,1.28.92,2.19.83.71-.08,1.27-.4,1.69-.94.43-.54.73-1.38.9-2.5l.5-3.79c.38-2.81,1.17-4.91,2.4-6.31,1.23-1.41,2.89-2.21,4.96-2.42,1.73-.18,3.28.11,4.63.88,1.36.76,2.46,1.91,3.29,3.44.83,1.53,1.35,3.35,1.56,5.48.25,2.5.09,4.61-.46,6.33-.54,1.72-1.37,3.09-2.48,4.1l-4.4-3.29-.06-.5c.8-.86,1.35-1.8,1.65-2.81.3-1,.4-2.09.27-3.27-.28-2.75-1.27-4.04-2.98-3.88-.72.07-1.28.38-1.67.94-.39.55-.67,1.5-.83,2.83l-.4,3.5c-.33,2.86-1.1,5.01-2.31,6.44-1.2,1.43-2.92,2.26-5.17,2.5-1.75.17-3.34-.12-4.77-.85-1.43-.72-2.6-1.87-3.5-3.44-.89-1.56-1.45-3.47-1.67-5.73Z"/><path class="cls-8" d="M282.28,183.62l-5.31,1.42c-.57-.81-.98-1.8-1.23-2.98-.26-1.17-.34-2.47-.23-3.92.25-3,1.25-5.22,3-6.65,1.76-1.43,4.21-2.02,7.35-1.77l13.19,1.04.33-4.23,5.54.44-.33,4.23,5.42.44.56,7.08-6.54-.54-.63,7.88-5.54-.44.63-7.88-12.69-1c-1.39-.11-2.43.09-3.1.6-.68.51-1.06,1.32-1.15,2.42-.1,1.23.16,2.34.77,3.33l-.04.52Z"/><path class="cls-8" d="M271.1,200.43c.75-2.61,1.95-4.75,3.6-6.42,1.65-1.67,3.67-2.75,6.06-3.25,2.4-.49,5.07-.31,8.02.54,2.94.86,5.3,2.14,7.06,3.83,1.76,1.71,2.9,3.71,3.4,6s.38,4.74-.38,7.35c-.77,2.63-1.97,4.77-3.63,6.44-1.66,1.68-3.68,2.76-6.08,3.25-2.41.5-5.08.32-8.02-.54-2.95-.85-5.29-2.13-7.04-3.83-1.76-1.7-2.9-3.7-3.4-6-.5-2.29-.36-4.75.4-7.38ZM276.8,202.07c-1.21,4.17.91,7.04,6.35,8.63,2.83.82,5.05.88,6.67.19,1.63-.68,2.73-2.04,3.33-4.06,1.19-4.14-.94-7-6.4-8.58-5.45-1.58-8.77-.31-9.96,3.83Z"/></g></svg>